<?xml version="1.0" encoding="utf-8"?>
<!-- Generator: Adobe Illustrator 25.2.1, SVG Export Plug-In . SVG Version: 6.00 Build 0)  -->
<svg version="1.1" id="Layer_1" xmlns="http://www.w3.org/2000/svg" xmlns:xlink="http://www.w3.org/1999/xlink" x="0px" y="0px"
	 viewBox="0 0 369.9 136.1" style="enable-background:new 0 0 369.9 136.1;" xml:space="preserve">
<style type="text/css">
	.st0{fill:#2196F3;}
	.st1{fill:#009688;}
	.st2{fill:#FFFFFF;}
	.st3{fill:#CCCCCC;}
	.st4{fill:#6BB4AC;}
	.st5{fill:#F44336;}
</style>
<g>
	<g>
		<path class="st0" d="M92.1,56.7h-5.7c-2.2,0-4-1.8-4-4V29.5c0-2.2-1.7-4-3.9-4H38c-4.8,0-8.6,3.9-8.6,8.7v5.9h3.2
			c2.1,0,3.8,1.7,3.8,3.8c0,2.1-1.7,3.9-3.8,3.9h-3.2v16.3h3.2c2.1,0,3.8,1.7,3.8,3.9c0,2.1-1.7,3.8-3.8,3.8h-3.2v16.3h3.2
			c2.1,0,3.8,1.7,3.8,3.8s-1.7,3.8-3.8,3.8h-3.2v5.9c0,4.8,3.9,8.7,8.6,8.7h49.3c4.8,0,8.7-3.9,8.7-8.7V60.7
			C96,58.5,94.2,56.7,92.1,56.7z"/>
		<path class="st1" d="M36.4,44c0,2.1-1.7,3.9-3.8,3.9h-6.4c-2.1,0-3.8-1.7-3.8-3.9c0-2.1,1.7-3.8,3.8-3.8h6.4
			C34.7,40.2,36.4,41.9,36.4,44z"/>
		<path class="st1" d="M36.4,68.1c0,2.1-1.7,3.8-3.8,3.8h-6.4c-2.1,0-3.8-1.7-3.8-3.8c0-2.1,1.7-3.9,3.8-3.9h6.4
			C34.7,64.2,36.4,65.9,36.4,68.1z"/>
		<path class="st1" d="M36.4,92.1c0,2.1-1.7,3.8-3.8,3.8h-6.2c-2.1,0-4-1.6-4.1-3.7c-0.1-2.2,1.7-4,3.8-4h6.4
			C34.7,88.3,36.4,90,36.4,92.1z"/>
		<path class="st2" d="M78.5,67.9c0,8.8-7.2,15.9-16,15.9s-16-7.1-16-15.9c0-8.9,7.2-16,16-16S78.5,59,78.5,67.9z"/>
		<path class="st3" d="M74.8,57.6c2.3,2.8,3.7,6.4,3.7,10.3c0,8.8-7.2,15.9-16,15.9c-3.7,0-7-1.2-9.8-3.3c2.9,3.5,7.3,5.7,12.3,5.7
			c8.8,0,16-7.1,16-15.9C81,65.1,78.5,60.5,74.8,57.6z"/>
		<path class="st4" d="M96,34.2v10.8c0-2.2-1.8-4-3.9-4h-5.7c-2.2,0-4-1.8-4-4v-7.7c0-2.2-1.7-4-3.9-4h8.9
			C92.1,25.6,96,29.5,96,34.2z"/>
		<path class="st1" d="M96,45.1v15.6c0-2.2-1.8-4-3.9-4h-5.7c-2.2,0-4-1.8-4-4V37.2c0,2.2,1.8,4,4,4h5.7C94.2,41.2,96,42.9,96,45.1z
			"/>
		<path class="st3" d="M87.2,54.3c-1.4,0-2.5-1.1-2.5-2.5v-11v-3.8v-4.3v-4.1c0-1.6-1.3-2.9-2.9-2.9h-3.3c2.2,0,3.9,1.8,3.9,4v7.7
			v15.6c0,2.2,1.8,4,4,4H92c2.2,0,3.9,1.8,3.9,4v-3c0-1.9-1.5-3.4-3.4-3.4L87.2,54.3L87.2,54.3z"/>
		<path class="st3" d="M36.3,45c-0.5,1.6-1.9,2.9-3.7,2.9h-3.2v2h3.2c2.1,0,3.8-1.7,3.8-3.9C36.4,45.7,36.3,45.3,36.3,45z"/>
		<path class="st3" d="M36.3,69.1c-0.5,1.6-1.9,2.9-3.7,2.9h-3.2v2h3.2c2.1,0,3.8-1.7,3.8-3.9C36.4,69.7,36.3,69.4,36.3,69.1z"/>
		<path class="st3" d="M36.3,93.1c-0.5,1.6-1.9,2.9-3.7,2.9h-3.2v2h3.2c2.1,0,3.8-1.7,3.8-3.9C36.4,93.7,36.3,93.4,36.3,93.1z"/>
		<g>
			<path class="st5" d="M70,64.9c0-4.4-3.8-7.9-8.3-7.4c-3.5,0.4-6.2,3.2-6.6,6.7c-0.2,2.4,0.6,4.5,2.2,6.1c1.1,1.1,1.7,2.5,1.9,3.9
				l0,0c0.1,0.4,0.4,0.7,0.8,0.7h2.6h2.6c0.4,0,0.8-0.3,0.8-0.7l0-0.2c0.2-1.4,0.9-2.7,1.9-3.7C69.1,68.8,70,67,70,64.9z"/>
			<path class="st5" d="M64.8,76.2h-4.6c-0.5,0-0.7,0.6-0.4,0.9c0.7,0.8,1.6,1.2,2.7,1.2s2.1-0.5,2.7-1.2
				C65.5,76.7,65.3,76.2,64.8,76.2z"/>
		</g>
	</g>
	<g>
		<path class="st2" d="M147,61.5l-1.7-14.3l-5.6,11.7h-3.7l-5.7-11.7l-1.7,14.3h-4.8l2.8-23.1h4l7.1,15.2l7.1-15.2h4l2.8,23.1H147z"
			/>
		<path class="st2" d="M154.1,40.5c0-1.5,1.3-2.6,2.8-2.6c1.5,0,2.8,1.1,2.8,2.6s-1.2,2.7-2.8,2.7C155.3,43.1,154.1,41.9,154.1,40.5
			z M154.7,45.9h4.4v15.6h-4.4V45.9z"/>
		<path class="st2" d="M161.7,56.5h4.1c0,0.9,0.8,1.9,2.3,1.9c1.3,0,2.2-0.5,2.2-1.4c0-0.7-0.5-1-1.7-1.3l-2.1-0.5
			c-4-1.1-4.6-3.3-4.6-5c0-2.4,2.5-4.7,6.1-4.7c2.9,0,6.2,1.4,6.2,5.1h-4.2c0-1-0.9-1.6-1.9-1.6c-1,0-1.8,0.5-1.8,1.3
			c0,0.7,0.7,1.1,1.5,1.3l2.6,0.7c3.8,1,4.2,3.3,4.2,4.6c0,3.3-3.4,4.9-6.6,4.9C164.9,61.8,161.7,60,161.7,56.5z"/>
		<path class="st2" d="M176.4,56.5h4.1c0,0.9,0.8,1.9,2.3,1.9c1.3,0,2.2-0.5,2.2-1.4c0-0.7-0.5-1-1.7-1.3l-2.1-0.5
			c-4-1.1-4.6-3.3-4.6-5c0-2.4,2.5-4.7,6.1-4.7c2.9,0,6.2,1.4,6.2,5.1h-4.2c0-1-0.9-1.6-1.9-1.6c-1,0-1.8,0.5-1.8,1.3
			c0,0.7,0.7,1.1,1.5,1.3l2.6,0.7c3.8,1,4.2,3.3,4.2,4.6c0,3.3-3.4,4.9-6.6,4.9C179.6,61.8,176.5,60,176.4,56.5z"/>
		<path class="st2" d="M191.6,40.5c0-1.5,1.3-2.6,2.8-2.6c1.5,0,2.8,1.1,2.8,2.6s-1.2,2.7-2.8,2.7C192.8,43.1,191.6,41.9,191.6,40.5
			z M192.2,45.9h4.4v15.6h-4.4V45.9z"/>
		<path class="st2" d="M199.2,53.7c0-5,4-8.2,8.4-8.2c4.5,0,8.4,3.2,8.4,8.2c0,4.9-4,8.2-8.4,8.2S199.2,58.6,199.2,53.7z
			 M211.6,53.7c0-2.5-1.8-4.1-4-4.1c-2.2,0-4,1.6-4,4.1c0,2.4,1.8,4.1,4,4.1C209.8,57.7,211.6,56.1,211.6,53.7z"/>
		<path class="st2" d="M233.9,52.9v8.6h-4.4v-8.1c0-2.5-1.5-3.6-3-3.6c-1.6,0-3.5,0.8-3.5,3.7v8h-4.4V45.9h4.4v2.6
			c0.7-2.1,3.1-3,4.7-3C231.8,45.5,234,48.2,233.9,52.9z"/>
		<path class="st2" d="M243.7,50c0-6.5,5.2-11.8,11.7-11.8c3.9,0,7.3,1.9,9.4,4.8l-3.6,2.6c-1.3-1.8-3.2-3-5.7-3
			c-4.2,0-7.2,3.3-7.2,7.4s3,7.5,7.2,7.5c2.5,0,4.4-1.1,5.7-3l3.6,2.6c-2.1,2.9-5.5,4.8-9.4,4.8C248.9,61.8,243.7,56.5,243.7,50z"/>
		<path class="st2" d="M278.5,46l-1,4.2c-0.9-0.5-1.7-0.6-2.2-0.6c-2.2,0-3.8,2.1-3.8,6.5v5.4H267V45.9h4.4v3.3
			c0.9-2.6,2.6-3.7,4.6-3.7C276.8,45.5,277.7,45.6,278.5,46z"/>
		<path class="st2" d="M279.4,40.5c0-1.5,1.3-2.6,2.8-2.6c1.5,0,2.8,1.1,2.8,2.6s-1.2,2.7-2.8,2.7C280.7,43.1,279.4,41.9,279.4,40.5
			z M280,45.9h4.4v15.6H280V45.9z"/>
		<path class="st2" d="M297.2,49.3h-3.3v12.2h-4.4V49.3h-2.9v-3.4h2.9v-5.7h4.4v5.7h3.3V49.3z"/>
		<path class="st2" d="M298.6,40.5c0-1.5,1.3-2.6,2.8-2.6c1.5,0,2.8,1.1,2.8,2.6s-1.2,2.7-2.8,2.7C299.9,43.1,298.6,41.9,298.6,40.5
			z M299.2,45.9h4.4v15.6h-4.4V45.9z"/>
		<path class="st2" d="M306.2,53.6c0-5,4-8.2,8.6-8.2c2.9,0,5.1,1.3,6.6,3.3l-3.3,2.3c-0.7-1-2-1.6-3.3-1.6c-2.5,0-4.2,1.8-4.2,4.1
			c0,2.3,1.7,4.1,4.2,4.1c1.3,0,2.6-0.6,3.3-1.6l3.3,2.3c-1.5,2-3.8,3.3-6.6,3.3C310.2,61.8,306.2,58.6,306.2,53.6z"/>
		<path class="st2" d="M339.6,45.9v15.6h-4.4v-1.9c-1.1,1.5-3.3,2.2-5,2.2c-4,0-7.7-3.1-7.7-8.2s3.7-8.2,7.7-8.2
			c1.8,0,3.9,0.7,5,2.2v-1.9H339.6z M335.1,53.7c0-2.4-2-4-4.1-4c-2.2,0-4.1,1.7-4.1,4c0,2.3,1.8,4.1,4.1,4.1
			C333.2,57.7,335.1,56.1,335.1,53.7z"/>
		<path class="st2" d="M343.2,37.5h4.4v24h-4.4V37.5z"/>
	</g>
	<g>
		<path class="st2" d="M141.2,80.7c0,3.6-1.9,7-6.7,7h-6.8v9h-2.2V73.7h9.1C139.3,73.7,141.2,77.2,141.2,80.7z M139,80.7
			c0-2.5-1.2-5-4.4-5h-6.8v9.9h6.7C137.7,85.7,139,83.2,139,80.7z"/>
		<path class="st2" d="M153.8,81.3l-0.4,2c-0.8-0.3-1.5-0.4-2.1-0.4c-3.7,0-4.9,4.2-4.9,8v5.9h-2.2V81.1h2.2V85
			c0.8-2.7,2.4-4.2,4.9-4.2C152.1,80.8,153.1,81,153.8,81.3z"/>
		<path class="st2" d="M154.1,88.9c0-5,3.7-8.1,8.2-8.1c4.5,0,8.2,3.2,8.2,8.1c0,5-3.8,8.2-8.2,8.2
			C157.8,97.1,154.1,93.9,154.1,88.9z M168.3,88.9c0-3.7-2.8-6.1-6.1-6.1c-3.3,0-6,2.4-6,6.1c0,3.7,2.7,6.2,6,6.2
			C165.5,95.1,168.3,92.6,168.3,88.9z"/>
		<path class="st2" d="M180.4,83h-3.6v13.8h-2.1V83h-2.9v-1.8h2.9v-6.2h2.1v6.2h3.6V83z"/>
		<path class="st2" d="M181.4,88.9c0-5,3.7-8.1,8.2-8.1c4.5,0,8.2,3.2,8.2,8.1c0,5-3.8,8.2-8.2,8.2
			C185.1,97.1,181.4,93.9,181.4,88.9z M195.7,88.9c0-3.7-2.8-6.1-6.1-6.1c-3.3,0-6,2.4-6,6.1c0,3.7,2.7,6.2,6,6.2
			C192.9,95.1,195.7,92.6,195.7,88.9z"/>
		<path class="st2" d="M200.2,88.9c0-5,3.8-8.2,8.3-8.2c2.2,0,4.2,0.8,5.6,2.2l-1.3,1.5c-1.1-1-2.6-1.6-4.2-1.6
			c-3.4,0-6.2,2.4-6.2,6.1c0,3.7,2.8,6.1,6.2,6.1c1.7,0,3.1-0.6,4.2-1.5l1.3,1.4c-1.4,1.3-3.4,2.2-5.6,2.2
			C204,97.1,200.2,93.9,200.2,88.9z"/>
		<path class="st2" d="M215.7,88.9c0-5,3.7-8.1,8.2-8.1c4.5,0,8.2,3.2,8.2,8.1c0,5-3.8,8.2-8.2,8.2
			C219.4,97.1,215.7,93.9,215.7,88.9z M229.9,88.9c0-3.7-2.8-6.1-6.1-6.1c-3.3,0-6,2.4-6,6.1c0,3.7,2.7,6.2,6,6.2
			C227.1,95.1,229.9,92.6,229.9,88.9z"/>
		<path class="st2" d="M235.5,72.3h2.1v24.5h-2.1V72.3z"/>
		<path class="st2" d="M240.9,92.6h2c0.2,1.3,1.4,2.7,3.7,2.7c2.2,0,3.6-1.1,3.6-2.7c0-1.3-0.9-2.1-2.5-2.5l-2.2-0.5
			c-2.2-0.5-4-1.7-4-4.3c0-2.6,2.2-4.4,5.2-4.4c2.6,0,5,1.4,5.1,4.3h-2.1c-0.1-1.4-1.5-2.3-3-2.3c-1.8,0-3.1,1-3.1,2.5
			c0,1.5,1.3,2.1,2.4,2.4l2.3,0.6c3.1,0.7,4,2.6,4,4.4c0,2.8-2.5,4.6-5.8,4.6C243.9,97.1,241.1,95.6,240.9,92.6z"/>
	</g>
</g>
</svg>
