<?xml version="1.0" encoding="utf-8"?>
<!-- Generator: Adobe Illustrator 26.0.2, SVG Export Plug-In . SVG Version: 6.00 Build 0)  -->
<svg version="1.1" id="Layer_1" xmlns="http://www.w3.org/2000/svg" xmlns:xlink="http://www.w3.org/1999/xlink" x="0px" y="0px"
	 viewBox="0 0 369.9 136.12" style="enable-background:new 0 0 369.9 136.12;" xml:space="preserve">
<style type="text/css">
	.st0{fill:#2196F3;}
	.st1{fill:#009688;}
	.st2{fill:#FFFFFF;}
	.st3{fill:#CCCCCC;}
	.st4{fill:#6BB4AC;}
	.st5{fill:#F44336;}
	.st6{fill:#263238;}
</style>
<g>
	<g>
		<path class="st0" d="M92.06,56.72h-5.73c-2.21,0-3.99-1.78-3.99-3.95V29.52c0-2.17-1.74-3.95-3.95-3.95H38
			c-4.77,0-8.64,3.87-8.64,8.68v5.93h3.22c2.09,0,3.84,1.7,3.84,3.84c0,2.13-1.74,3.87-3.84,3.87h-3.22V64.2h3.22
			c2.09,0,3.84,1.74,3.84,3.87c0,2.09-1.74,3.84-3.84,3.84h-3.22v16.35h3.22c2.09,0,3.84,1.7,3.84,3.84s-1.74,3.84-3.84,3.84h-3.22
			v5.93c0,4.8,3.87,8.68,8.64,8.68h49.33c4.8,0,8.68-3.87,8.68-8.68v-41.2C96.01,58.5,94.23,56.72,92.06,56.72z"/>
		<path class="st1" d="M36.41,44.02c0,2.13-1.74,3.87-3.84,3.87h-6.43c-2.13,0-3.84-1.74-3.84-3.87c0-2.13,1.7-3.84,3.84-3.84h6.43
			C34.67,40.18,36.41,41.88,36.41,44.02z"/>
		<path class="st1" d="M36.41,68.08c0,2.09-1.74,3.84-3.84,3.84h-6.43c-2.13,0-3.84-1.74-3.84-3.84c0-2.13,1.7-3.87,3.84-3.87h6.43
			C34.67,64.2,36.41,65.95,36.41,68.08z"/>
		<path class="st1" d="M36.41,92.1c0,2.13-1.74,3.84-3.84,3.84l-6.19,0c-2.11,0-4-1.59-4.08-3.7c-0.08-2.2,1.66-3.98,3.83-3.98h6.43
			C34.67,88.27,36.41,89.97,36.41,92.1z"/>
		<path class="st2" d="M78.49,67.9c0,8.82-7.17,15.95-15.99,15.95S46.5,76.72,46.5,67.9c0-8.87,7.17-15.99,15.99-15.99
			S78.49,59.04,78.49,67.9z"/>
		<path class="st3" d="M74.75,57.62c2.33,2.78,3.74,6.36,3.74,10.28c0,8.82-7.17,15.95-15.99,15.95c-3.67,0-7.05-1.25-9.75-3.33
			c2.94,3.5,7.34,5.72,12.27,5.72c8.82,0,15.99-7.13,15.99-15.95C81,65.11,78.54,60.54,74.75,57.62z"/>
		<path class="st4" d="M96.01,34.25V45.1c0-2.17-1.78-3.95-3.95-3.95h-5.73c-2.21,0-3.99-1.78-3.99-3.95v-7.67
			c0-2.17-1.74-3.95-3.95-3.95h8.95C92.13,25.57,96.01,29.45,96.01,34.25z"/>
		<path class="st1" d="M96.01,45.1v15.57c0-2.17-1.78-3.95-3.95-3.95h-5.73c-2.21,0-3.99-1.78-3.99-3.95V37.19
			c0,2.17,1.78,3.95,3.99,3.95h5.73C94.23,41.15,96.01,42.93,96.01,45.1z"/>
		<path class="st3" d="M87.17,54.33c-1.39,0-2.53-1.13-2.53-2.53V40.77v-3.85v-4.29v-4.12c0-1.62-1.32-2.94-2.94-2.94h-3.32
			c2.21,0,3.95,1.78,3.95,3.95v7.67v15.57c0,2.17,1.78,3.95,3.99,3.95h5.73c2.17,0,3.95,1.78,3.95,3.95v-2.95
			c0-1.87-1.52-3.39-3.39-3.39H87.17z"/>
		<path class="st3" d="M36.26,45.03c-0.45,1.64-1.94,2.87-3.69,2.87h-3.22v2.02h3.22c2.09,0,3.84-1.74,3.84-3.87
			C36.41,45.68,36.35,45.35,36.26,45.03z"/>
		<path class="st3" d="M36.26,69.05c-0.45,1.64-1.94,2.87-3.69,2.87h-3.22v2.02h3.22c2.09,0,3.84-1.74,3.84-3.87
			C36.41,69.71,36.35,69.37,36.26,69.05z"/>
		<path class="st3" d="M36.26,93.07c-0.45,1.64-1.94,2.87-3.69,2.87h-3.22v2.02h3.22c2.09,0,3.84-1.74,3.84-3.87
			C36.41,93.73,36.35,93.4,36.26,93.07z"/>
		<g>
			<path class="st5" d="M69.97,64.9c0-4.41-3.82-7.93-8.33-7.43c-3.45,0.38-6.24,3.2-6.59,6.65c-0.24,2.37,0.63,4.54,2.16,6.06
				c1.06,1.05,1.67,2.47,1.88,3.95l0,0c0.06,0.42,0.42,0.73,0.85,0.73h2.56h2.56c0.43,0,0.79-0.31,0.85-0.73l0.03-0.24
				c0.2-1.41,0.86-2.72,1.86-3.73C69.14,68.82,69.97,66.96,69.97,64.9z"/>
			<path class="st5" d="M64.81,76.19h-4.63c-0.46,0-0.72,0.55-0.41,0.89c0.66,0.76,1.64,1.25,2.73,1.25c1.09,0,2.07-0.48,2.73-1.25
				C65.53,76.74,65.27,76.19,64.81,76.19z"/>
		</g>
	</g>
	<g>
		<path class="st6" d="M147.04,61.52l-1.68-14.32l-5.63,11.7h-3.66l-5.7-11.7l-1.68,14.32h-4.76l2.85-23.11h3.96l7.14,15.16
			l7.08-15.16h4.02l2.82,23.11H147.04z"/>
		<path class="st6" d="M154.06,40.46c0-1.48,1.27-2.62,2.78-2.62c1.54,0,2.78,1.14,2.78,2.62s-1.24,2.65-2.78,2.65
			C155.33,43.11,154.06,41.94,154.06,40.46z M154.66,45.9h4.39v15.63h-4.39V45.9z"/>
		<path class="st6" d="M161.67,56.49h4.13c0,0.91,0.77,1.88,2.31,1.88c1.27,0,2.25-0.54,2.25-1.44c0-0.67-0.54-1.01-1.71-1.31
			l-2.08-0.5c-4.02-1.07-4.56-3.32-4.56-4.96c0-2.42,2.52-4.66,6.14-4.66c2.85,0,6.2,1.41,6.17,5.1h-4.19
			c0-1.04-0.87-1.61-1.91-1.61c-1.01,0-1.81,0.5-1.81,1.31c0,0.74,0.67,1.11,1.54,1.34l2.58,0.67c3.76,1.01,4.23,3.35,4.23,4.63
			c0,3.29-3.35,4.9-6.57,4.9C164.89,61.83,161.71,59.95,161.67,56.49z"/>
		<path class="st6" d="M176.43,56.49h4.13c0,0.91,0.77,1.88,2.31,1.88c1.27,0,2.25-0.54,2.25-1.44c0-0.67-0.54-1.01-1.71-1.31
			l-2.08-0.5c-4.02-1.07-4.56-3.32-4.56-4.96c0-2.42,2.52-4.66,6.14-4.66c2.85,0,6.2,1.41,6.17,5.1h-4.19
			c0-1.04-0.87-1.61-1.91-1.61c-1.01,0-1.81,0.5-1.81,1.31c0,0.74,0.67,1.11,1.54,1.34l2.58,0.67c3.76,1.01,4.23,3.35,4.23,4.63
			c0,3.29-3.35,4.9-6.57,4.9C179.65,61.83,176.47,59.95,176.43,56.49z"/>
		<path class="st6" d="M191.56,40.46c0-1.48,1.27-2.62,2.78-2.62c1.54,0,2.78,1.14,2.78,2.62s-1.24,2.65-2.78,2.65
			C192.84,43.11,191.56,41.94,191.56,40.46z M192.17,45.9h4.39v15.63h-4.39V45.9z"/>
		<path class="st6" d="M199.18,53.68c0-4.96,3.96-8.18,8.42-8.18c4.46,0,8.42,3.22,8.42,8.18c0,4.93-3.96,8.15-8.42,8.15
			C203.14,61.83,199.18,58.61,199.18,53.68z M211.55,53.68c0-2.45-1.78-4.09-3.96-4.09c-2.18,0-3.96,1.64-3.96,4.09
			c0,2.41,1.78,4.06,3.96,4.06C209.78,57.73,211.55,56.09,211.55,53.68z"/>
		<path class="st6" d="M233.93,52.94v8.59h-4.39v-8.12c0-2.48-1.48-3.59-2.98-3.59c-1.58,0-3.52,0.84-3.52,3.69v8.01h-4.39V45.9
			h4.39v2.62c0.67-2.11,3.15-3.02,4.7-3.02C231.82,45.49,233.96,48.24,233.93,52.94z"/>
		<path class="st6" d="M243.66,49.95c0-6.51,5.2-11.8,11.74-11.8c3.92,0,7.34,1.88,9.42,4.8l-3.56,2.58
			c-1.31-1.84-3.25-2.98-5.7-2.98c-4.19,0-7.24,3.29-7.24,7.41s3.02,7.48,7.21,7.48c2.48,0,4.43-1.14,5.73-3.02l3.56,2.62
			c-2.08,2.88-5.5,4.8-9.42,4.8C248.86,61.83,243.66,56.53,243.66,49.95z"/>
		<path class="st6" d="M278.45,46l-1.01,4.19c-0.94-0.5-1.71-0.57-2.25-0.57c-2.25,0-3.79,2.08-3.79,6.54v5.37h-4.39V45.9h4.36v3.32
			c0.87-2.62,2.65-3.72,4.59-3.72C276.8,45.49,277.74,45.63,278.45,46z"/>
		<path class="st6" d="M279.39,40.46c0-1.48,1.27-2.62,2.78-2.62c1.54,0,2.78,1.14,2.78,2.62s-1.24,2.65-2.78,2.65
			C280.66,43.11,279.39,41.94,279.39,40.46z M279.99,45.9h4.39v15.63h-4.39V45.9z"/>
		<path class="st6" d="M297.2,49.28h-3.32v12.24h-4.39V49.28h-2.85V45.9h2.85v-5.73h4.39v5.73h3.32V49.28z"/>
		<path class="st6" d="M298.61,40.46c0-1.48,1.27-2.62,2.78-2.62c1.54,0,2.78,1.14,2.78,2.62s-1.24,2.65-2.78,2.65
			C299.89,43.11,298.61,41.94,298.61,40.46z M299.22,45.9h4.39v15.63h-4.39V45.9z"/>
		<path class="st6" d="M306.23,53.64c0-4.96,4.02-8.15,8.59-8.15c2.85,0,5.13,1.34,6.61,3.35l-3.29,2.31
			c-0.7-0.97-2.01-1.58-3.29-1.58c-2.48,0-4.16,1.78-4.16,4.06c0,2.31,1.68,4.09,4.16,4.09c1.27,0,2.58-0.6,3.29-1.58l3.29,2.31
			c-1.48,2.05-3.76,3.35-6.61,3.35C310.25,61.83,306.23,58.61,306.23,53.64z"/>
		<path class="st6" d="M339.6,45.9v15.63h-4.39v-1.94c-1.11,1.54-3.29,2.25-5.03,2.25c-4.02,0-7.68-3.12-7.68-8.15
			s3.66-8.15,7.68-8.15c1.81,0,3.92,0.67,5.03,2.25V45.9H339.6z M335.07,53.68c0-2.42-2.01-4.03-4.06-4.03
			c-2.21,0-4.06,1.71-4.06,4.03c0,2.28,1.84,4.06,4.06,4.06C333.16,57.73,335.07,56.06,335.07,53.68z"/>
		<path class="st6" d="M343.2,37.55h4.39v23.98h-4.39V37.55z"/>
	</g>
	<g>
		<path class="st6" d="M141.21,80.74c0,3.59-1.88,7.04-6.71,7.04h-6.77v9.02h-2.21V73.7h9.09C139.33,73.7,141.21,77.18,141.21,80.74
			z M138.99,80.74c0-2.48-1.24-4.96-4.43-4.96h-6.84v9.93h6.67C137.72,85.7,138.99,83.25,138.99,80.74z"/>
		<path class="st6" d="M153.76,81.27l-0.4,2.04c-0.8-0.34-1.54-0.44-2.11-0.44c-3.72,0-4.86,4.16-4.86,8.01v5.9h-2.18V81.14h2.18
			v3.82c0.77-2.65,2.45-4.16,4.9-4.16C152.15,80.8,153.15,80.97,153.76,81.27z"/>
		<path class="st6" d="M154.06,88.92c0-4.96,3.72-8.12,8.18-8.12c4.46,0,8.22,3.15,8.22,8.12c0,4.96-3.76,8.22-8.22,8.22
			C157.78,97.14,154.06,93.88,154.06,88.92z M168.31,88.92c0-3.69-2.78-6.07-6.07-6.07c-3.32,0-6.04,2.38-6.04,6.07
			c0,3.72,2.72,6.17,6.04,6.17C165.53,95.09,168.31,92.64,168.31,88.92z"/>
		<path class="st6" d="M180.36,82.98h-3.59V96.8h-2.11V82.98h-2.85v-1.84h2.85V74.9h2.11v6.24h3.59V82.98z"/>
		<path class="st6" d="M181.4,88.92c0-4.96,3.72-8.12,8.18-8.12c4.46,0,8.22,3.15,8.22,8.12c0,4.96-3.76,8.22-8.22,8.22
			C185.12,97.14,181.4,93.88,181.4,88.92z M195.66,88.92c0-3.69-2.78-6.07-6.07-6.07c-3.32,0-6.04,2.38-6.04,6.07
			c0,3.72,2.72,6.17,6.04,6.17C192.87,95.09,195.66,92.64,195.66,88.92z"/>
		<path class="st6" d="M200.16,88.95c0-4.96,3.82-8.15,8.28-8.15c2.25,0,4.23,0.84,5.63,2.15l-1.34,1.48
			c-1.07-0.97-2.55-1.58-4.23-1.58c-3.42,0-6.2,2.42-6.2,6.1c0,3.65,2.78,6.1,6.2,6.1c1.68,0,3.15-0.57,4.23-1.54l1.34,1.44
			c-1.41,1.34-3.39,2.15-5.63,2.15C203.98,97.1,200.16,93.92,200.16,88.95z"/>
		<path class="st6" d="M215.66,88.92c0-4.96,3.72-8.12,8.18-8.12c4.46,0,8.22,3.15,8.22,8.12c0,4.96-3.76,8.22-8.22,8.22
			C219.38,97.14,215.66,93.88,215.66,88.92z M229.91,88.92c0-3.69-2.78-6.07-6.07-6.07c-3.32,0-6.04,2.38-6.04,6.07
			c0,3.72,2.72,6.17,6.04,6.17C227.13,95.09,229.91,92.64,229.91,88.92z"/>
		<path class="st6" d="M235.48,72.32h2.15V96.8h-2.15V72.32z"/>
		<path class="st6" d="M240.88,92.58h1.98c0.24,1.31,1.44,2.65,3.72,2.65c2.25,0,3.62-1.11,3.62-2.68c0-1.27-0.87-2.11-2.48-2.52
			l-2.25-0.54c-2.21-0.54-3.99-1.68-3.99-4.29c0-2.55,2.18-4.39,5.16-4.39c2.62,0,5.03,1.44,5.13,4.26h-2.08
			c-0.1-1.41-1.48-2.35-3.02-2.35c-1.81,0-3.05,1.04-3.05,2.52c0,1.47,1.27,2.11,2.41,2.38l2.31,0.57c3.05,0.74,3.99,2.58,3.99,4.39
			c0,2.78-2.52,4.56-5.77,4.56C243.87,97.14,241.15,95.56,240.88,92.58z"/>
	</g>
</g>
</svg>
