<svg xmlns="http://www.w3.org/2000/svg" viewBox="0 0 73.71 84.98"><defs><style>.cls-1{fill:#2196f3;}.cls-2{fill:#009688;}.cls-3{fill:#fff;}.cls-4{fill:#ccc;}.cls-5{fill:#6bb4ac;}.cls-6{fill:#f44336;}</style></defs><g id="Layer_2" data-name="Layer 2"><g id="Layer_1-2" data-name="Layer 1"><path class="cls-1" d="M69.76,31.15H64a4,4,0,0,1-4-3.95V4A3.94,3.94,0,0,0,56.09,0H15.7A8.65,8.65,0,0,0,7.06,8.68v5.93h3.22a3.86,3.86,0,0,1,0,7.71H7.06V38.63h3.22a3.86,3.86,0,0,1,0,7.71H7.06V62.69h3.22a3.84,3.84,0,0,1,0,7.68H7.06V76.3A8.66,8.66,0,0,0,15.7,85H65a8.67,8.67,0,0,0,8.68-8.68V35.1A4,4,0,0,0,69.76,31.15Z"/><path class="cls-2" d="M14.11,18.45a3.87,3.87,0,0,1-3.84,3.87H3.84a3.86,3.86,0,0,1,0-7.71h6.43A3.84,3.84,0,0,1,14.11,18.45Z"/><path class="cls-2" d="M14.11,42.51a3.87,3.87,0,0,1-3.84,3.84H3.84a3.86,3.86,0,0,1,0-7.71h6.43A3.87,3.87,0,0,1,14.11,42.51Z"/><path class="cls-2" d="M14.11,66.53a3.85,3.85,0,0,1-3.84,3.84H4.08A4,4,0,0,1,0,66.67a3.82,3.82,0,0,1,3.83-4h6.43A3.86,3.86,0,0,1,14.11,66.53Z"/><path class="cls-3" d="M56.19,42.33a16,16,0,1,1-16-16A16,16,0,0,1,56.19,42.33Z"/><path class="cls-4" d="M52.45,32.05a16,16,0,0,1-22,22.9,16,16,0,1,0,22-22.9Z"/><path class="cls-5" d="M73.71,8.68V19.53a4,4,0,0,0-3.95-4H64a4,4,0,0,1-4-3.95V4A3.94,3.94,0,0,0,56.09,0h9A8.66,8.66,0,0,1,73.71,8.68Z"/><path class="cls-2" d="M73.71,19.53V35.1a4,4,0,0,0-3.95-4H64a4,4,0,0,1-4-3.95V11.62a4,4,0,0,0,4,4h5.73A4,4,0,0,1,73.71,19.53Z"/><path class="cls-4" d="M64.87,28.76a2.53,2.53,0,0,1-2.53-2.53V2.94A2.94,2.94,0,0,0,59.4,0H56.08a3.94,3.94,0,0,1,4,4V27.19a4,4,0,0,0,4,3.95h5.73a4,4,0,0,1,4,4v-3a3.39,3.39,0,0,0-3.39-3.39H64.87Z"/><path class="cls-4" d="M14,19.46a3.87,3.87,0,0,1-3.69,2.87H7.05v2h3.22a3.88,3.88,0,0,0,3.84-3.87A3.69,3.69,0,0,0,14,19.46Z"/><path class="cls-4" d="M14,43.48a3.87,3.87,0,0,1-3.69,2.87H7.05v2h3.22a3.88,3.88,0,0,0,3.84-3.87A3.75,3.75,0,0,0,14,43.48Z"/><path class="cls-4" d="M14,67.5a3.87,3.87,0,0,1-3.69,2.87H7.05v2h3.22a3.88,3.88,0,0,0,3.84-3.87A3.81,3.81,0,0,0,14,67.5Z"/><path class="cls-6" d="M47.67,39.33a7.48,7.48,0,1,0-12.76,5.28,6.88,6.88,0,0,1,1.88,4h0a.85.85,0,0,0,.85.73h5.12a.85.85,0,0,0,.85-.73l0-.24a6.64,6.64,0,0,1,1.86-3.73A7.41,7.41,0,0,0,47.67,39.33Z"/><path class="cls-6" d="M42.51,50.62H37.88a.54.54,0,0,0-.41.89,3.61,3.61,0,0,0,5.46,0A.54.54,0,0,0,42.51,50.62Z"/></g></g></svg>